<?xml version="1.0" encoding="utf-8"?>
<!-- Generator: Adobe Illustrator 20.1.0, SVG Export Plug-In . SVG Version: 6.00 Build 0)  -->
<svg version="1.1" id="Слой_1" xmlns="http://www.w3.org/2000/svg" xmlns:xlink="http://www.w3.org/1999/xlink" x="0px" y="0px"
	 viewBox="0 0 107 12" style="enable-background:new 0 0 107 12;" xml:space="preserve">
<style type="text/css">
	.st0{fill:#3fa1d3;}
</style>
<path class="st0" d="M101,0c-3.3,0-6,2.7-6,6c0,0,0,0,0,0.1H0v1h95.1c0.5,2.8,2.9,4.9,5.9,4.9c3.3,0,6-2.7,6-6
	C107,2.7,104.3,0,101,0z M101.1,11c-2.8,0-5-2.2-5-5c0-2.8,2.2-5,5-5c2.8,0,5,2.2,5,5C106.1,8.8,103.8,11,101.1,11z"/>
</svg>
